<?xml version="1.0" standalone="no"?>
<!DOCTYPE svg PUBLIC "-//W3C//DTD SVG 20010904//EN"
 "http://www.w3.org/TR/2001/REC-SVG-20010904/DTD/svg10.dtd">
<svg version="1.0" xmlns="http://www.w3.org/2000/svg"
 width="1200.000000pt" height="1600.000000pt" viewBox="0 0 1200.000000 1600.000000"
 preserveAspectRatio="xMidYMid meet">

<g transform="translate(0.000000,1600.000000) scale(0.100000,-0.100000)"
fill="#000000" stroke="none">
<path d="M6800 11858 c-220 -15 -229 -26 -24 -27 105 0 253 -4 330 -7 122 -5
136 -4 119 8 -11 8 -33 15 -50 16 -16 1 -70 6 -120 11 -98 10 -101 10 -255 -1z"/>
<path d="M6525 11724 c-159 -17 -415 -70 -633 -129 -89 -25 -164 -45 -167 -45
-3 0 -5 -4 -5 -9 0 -16 52 -17 100 -3 25 7 97 28 160 46 116 34 371 87 510
106 41 5 104 14 140 19 36 5 96 12 134 15 39 4 72 9 75 11 9 10 -186 2 -314
-11z"/>
<path d="M6858 11733 c6 -2 18 -2 25 0 6 3 1 5 -13 5 -14 0 -19 -2 -12 -5z"/>
<path d="M5375 11549 l-50 -19 45 6 c50 7 111 34 75 33 -11 0 -42 -9 -70 -20z"/>
<path d="M5070 11443 c-8 -3 -87 -39 -175 -81 -404 -189 -851 -486 -1210 -805
-130 -116 -354 -333 -431 -417 -225 -250 -375 -437 -510 -640 -82 -122 -105
-159 -173 -282 -11 -21 -16 -38 -11 -38 6 0 15 10 21 23 13 29 84 137 193 294
79 113 131 181 290 378 58 72 218 247 311 340 201 201 406 369 655 537 202
137 332 210 575 324 65 30 99 56 180 134 111 107 185 165 266 210 49 27 58 37
19 23z"/>
<path d="M4590 11036 c-181 -111 -469 -329 -498 -377 -16 -26 -15 -25 80 43
73 51 242 158 252 158 3 0 36 19 73 41 38 23 73 44 78 47 6 3 -22 -24 -60 -61
-41 -37 -81 -87 -95 -114 -13 -26 -31 -59 -40 -73 -9 -14 -20 -33 -23 -43 -6
-16 -4 -16 31 2 20 10 52 22 70 26 40 8 41 10 121 225 9 25 36 73 60 108 23
35 41 65 39 67 -1 1 -41 -21 -88 -49z"/>
<path d="M4680 11022 c-80 -132 -118 -231 -150 -389 -19 -92 -22 -129 -17
-253 6 -160 37 -305 74 -342 19 -18 19 -14 -5 84 -21 87 -25 130 -26 273 -1
156 1 179 27 280 44 170 47 180 105 315 22 50 35 90 30 90 -2 0 -19 -26 -38
-58z"/>
<path d="M6366 10243 c-14 -16 -48 -64 -173 -242 -73 -105 -198 -257 -313
-381 -63 -69 -163 -184 -222 -255 -145 -178 -196 -225 -246 -225 -52 0 -127
39 -189 100 -28 27 -54 50 -58 50 -3 0 11 -32 31 -72 34 -62 46 -76 107 -116
l70 -45 68 13 c109 19 176 72 284 224 38 54 132 164 209 245 155 163 220 241
293 351 65 97 132 227 142 272 1 4 8 26 16 48 15 43 5 62 -19 33z"/>
<path d="M4657 9648 c6 -7 44 -56 85 -108 150 -192 281 -393 370 -568 51 -100
53 -107 53 -185 0 -67 4 -89 22 -120 22 -37 21 -62 -3 -82 -6 -5 -20 -23 -29
-38 l-18 -28 89 7 c102 7 187 -9 258 -51 55 -32 66 -32 66 6 0 45 17 27 57
-59 22 -46 61 -105 105 -156 86 -99 147 -181 271 -362 124 -184 165 -255 233
-404 109 -243 134 -348 139 -584 2 -81 7 -151 11 -155 4 -3 4 -1 1 5 -4 7 0
14 8 18 8 3 15 12 15 20 0 16 37 29 46 15 3 -5 13 -5 25 1 13 8 19 7 19 0 0
-6 11 -8 25 -6 33 6 47 15 40 27 -4 5 -1 9 4 9 6 0 10 10 10 23 0 12 4 40 10
62 6 22 13 74 17 115 7 89 11 116 19 130 7 11 53 3 120 -23 74 -28 116 -37
253 -50 75 -8 122 -9 122 -3 0 5 3 7 6 4 5 -6 59 25 90 51 25 21 93 29 303 36
99 3 149 1 158 -6 10 -9 18 -8 33 6 10 9 24 14 29 10 6 -3 11 -2 11 2 0 5 12
10 27 11 14 1 34 9 43 17 9 8 22 15 29 15 7 0 9 5 6 10 -3 6 -1 10 5 10 6 0 8
5 5 10 -6 9 8 14 28 11 5 -1 6 3 2 9 -8 13 20 42 30 32 5 -4 5 -1 1 6 -5 8 0
21 13 33 12 11 33 38 46 60 26 40 48 68 75 97 15 16 26 34 71 124 26 52 89
229 89 252 0 5 -30 -31 -66 -80 -304 -406 -788 -613 -1225 -524 -118 24 -179
47 -179 66 0 8 -7 14 -15 14 -20 0 -19 27 1 38 21 12 15 15 -76 42 -246 72
-456 231 -685 517 -231 290 -350 514 -370 701 -6 52 10 163 30 214 6 15 2 16
-30 11 -26 -4 -40 -2 -46 8 -16 25 -10 29 41 29 48 0 50 1 77 48 40 70 141
220 153 227 5 3 10 11 10 18 0 6 -30 -19 -67 -55 -41 -40 -90 -77 -123 -93
-30 -14 -75 -36 -100 -50 -25 -13 -61 -25 -80 -25 -20 0 -41 -5 -47 -11 -15
-15 -64 -5 -129 25 -126 59 -403 347 -557 579 -21 31 -45 57 -54 57 -11 0 -13
-4 -6 -12z"/>
<path d="M2929 9573 c-65 -71 -149 -240 -180 -360 -10 -42 -20 -115 -22 -162
-2 -91 12 -286 20 -277 3 2 6 80 8 173 4 243 40 374 154 568 27 47 49 85 47
85 -1 0 -14 -12 -27 -27z"/>
<path d="M7924 9449 c-5 -8 -9 -17 -10 -21 -1 -5 -2 -10 -4 -13 -7 -17 -2 -66
10 -79 20 -25 38 -2 36 47 -2 52 -19 86 -32 66z"/>
<path d="M6796 9408 c-9 -5 -21 -6 -28 -2 -7 5 -8 3 -3 -6 6 -10 4 -12 -8 -7
-19 7 -42 -17 -31 -35 6 -11 5 -11 -8 0 -12 9 -18 10 -23 2 -4 -6 -13 -9 -20
-6 -15 6 -28 -34 -19 -59 5 -13 8 -14 15 -3 6 9 9 10 9 1 0 -8 14 -11 43 -9
69 6 117 18 111 27 -3 5 2 6 10 3 9 -3 16 -1 16 6 0 6 4 9 9 6 5 -3 11 5 13
18 5 24 -23 61 -36 49 -3 -4 -6 0 -6 9 0 16 -20 19 -44 6z"/>
<path d="M2536 9154 c-5 -14 -4 -15 9 -4 17 14 19 20 6 20 -5 0 -12 -7 -15
-16z"/>
<path d="M3074 9124 c3 -7 0 -11 -7 -8 -15 5 -52 -34 -62 -65 -3 -12 -11 -21
-18 -21 -6 0 -2 -7 9 -16 10 -8 13 -12 5 -8 -9 4 -12 3 -7 -4 11 -18 79 -1
114 30 18 15 29 28 25 28 -4 0 -2 5 5 12 14 14 16 42 2 33 -5 -3 -10 -1 -10 4
0 6 -7 11 -15 11 -8 0 -15 4 -15 8 0 5 -7 9 -15 9 -9 0 -14 -6 -11 -13z"/>
<path d="M8421 9053 c-77 -103 -107 -156 -116 -205 -8 -42 12 -178 26 -178 5
0 9 5 9 11 0 5 9 29 19 52 27 58 83 199 86 217 2 8 4 15 5 15 5 0 41 157 38
165 -2 4 -32 -30 -67 -77z"/>
<path d="M2591 8848 c-166 -339 -284 -661 -342 -941 -34 -160 -38 -225 -8
-132 20 64 20 65 39 165 45 242 74 321 183 504 40 66 88 152 106 189 18 38 39
71 47 74 8 3 11 9 9 14 -3 4 4 18 15 29 11 11 19 24 16 28 -3 5 5 20 18 35 20
23 23 38 25 132 1 58 0 105 -3 105 -3 0 -50 -91 -105 -202z"/>
<path d="M5116 8660 c-10 -19 -31 -45 -47 -58 -16 -13 -29 -30 -29 -37 0 -8
-18 -33 -40 -56 -22 -23 -39 -44 -37 -45 10 -10 110 31 126 52 25 31 54 124
49 155 -3 23 -5 22 -22 -11z"/>
<path d="M2362 8173 c-43 -102 -56 -304 -27 -417 40 -155 154 -299 286 -363
190 -92 400 -80 694 38 66 26 136 50 155 53 19 3 59 12 88 20 53 15 53 14 40
-6 -8 -11 -50 -40 -93 -63 -111 -58 -238 -139 -243 -155 -4 -10 15 -12 99 -7
57 3 114 9 125 12 12 4 58 55 102 113 44 59 114 144 156 189 42 44 76 84 76
88 0 3 -27 -15 -60 -41 -82 -64 -193 -101 -176 -59 3 9 -3 12 -24 9 -47 -8
-43 11 14 73 30 32 75 99 101 148 26 50 51 92 56 93 5 2 7 7 5 11 -3 4 8 23
25 42 27 32 33 44 30 62 0 4 4 7 10 7 8 0 7 5 -1 15 -11 13 -10 14 4 9 14 -6
16 -2 10 22 -8 34 -14 43 -14 22 0 -11 -6 -14 -20 -11 -11 3 -37 -3 -57 -12
-21 -10 -40 -17 -42 -16 -2 2 -7 -1 -10 -6 -3 -6 -35 -27 -71 -47 -57 -34
-123 -82 -162 -119 -48 -45 -232 -200 -273 -229 -144 -102 -247 -108 -387 -23
-35 21 -65 42 -68 47 -4 4 -20 10 -36 14 -35 7 -61 -13 -69 -52 -3 -13 -7 -35
-10 -49 -12 -56 -93 -15 -155 77 -82 123 -107 308 -66 476 10 40 16 75 14 78
-3 2 -14 -17 -26 -43z"/>
<path d="M7440 8110 c0 -6 -4 -9 -8 -6 -5 3 -41 -44 -81 -105 -78 -119 -165
-215 -221 -245 -24 -12 -56 -18 -100 -19 -55 0 -77 6 -142 37 -75 36 -165 96
-219 147 -44 41 -69 61 -69 55 0 -4 -6 -1 -14 5 -9 8 -16 8 -20 2 -4 -6 -13
-8 -21 -5 -7 3 -18 -3 -24 -14 -15 -28 -6 -147 13 -177 22 -33 112 -93 227
-151 52 -26 119 -63 149 -83 53 -35 58 -36 140 -35 97 2 250 35 299 65 39 23
62 71 95 200 34 129 41 172 41 259 0 70 -1 75 -22 78 -13 2 -23 -2 -23 -8z"/>
<path d="M9652 7875 c-17 -37 -14 -45 4 -12 9 16 14 31 11 33 -2 2 -9 -7 -15
-21z"/>
<path d="M1551 7854 c0 -11 3 -14 6 -6 3 7 2 16 -1 19 -3 4 -6 -2 -5 -13z"/>
<path d="M9610 7796 c-6 -19 -14 -36 -18 -38 -8 -3 -52 -94 -51 -104 0 -4 -3
-10 -8 -13 -5 -3 -17 -26 -28 -51 -11 -25 -22 -47 -25 -50 -3 -3 -13 -21 -22
-40 -10 -19 -28 -53 -41 -75 -30 -51 -72 -126 -132 -240 -26 -49 -54 -97 -61
-106 -8 -8 -14 -19 -14 -23 0 -4 -29 -51 -64 -104 -35 -54 -92 -142 -126 -197
-35 -55 -81 -122 -102 -150 -22 -27 -102 -133 -179 -235 -77 -102 -152 -199
-167 -215 -54 -61 -103 -125 -95 -125 4 0 -3 -7 -15 -16 -12 -8 -22 -21 -22
-27 0 -7 -9 -19 -20 -27 -11 -8 -20 -19 -20 -25 0 -6 -8 -20 -17 -31 -31 -34
-60 -79 -67 -102 -4 -12 -12 -20 -17 -17 -5 4 -16 -10 -26 -29 -9 -19 -20 -33
-25 -30 -4 3 -8 -2 -8 -11 0 -9 -4 -13 -10 -10 -6 3 -7 -1 -4 -9 3 -9 10 -13
15 -10 5 3 9 0 9 -6 0 -6 11 -8 27 -6 20 4 23 2 15 -6 -18 -18 -14 -33 3 -18
13 11 14 10 10 -1 -4 -10 4 -14 25 -15 19 -1 27 3 23 10 -3 6 0 5 8 -2 11 -10
11 -15 2 -20 -7 -5 5 -8 26 -7 22 0 37 3 34 8 -2 4 1 7 6 7 6 0 11 -7 11 -15
0 -18 12 -19 27 -4 7 7 13 7 17 1 3 -5 18 -7 33 -4 25 5 25 6 8 13 -17 6 -17
8 -2 8 9 1 17 6 17 11 0 6 4 10 10 10 5 0 7 -7 4 -15 -4 -9 1 -17 12 -21 11
-3 27 -10 38 -15 11 -6 16 -7 12 -1 -3 5 1 16 10 23 8 7 14 8 12 3 -3 -10 4
-14 26 -14 9 0 13 7 11 19 -2 14 1 18 11 14 7 -3 12 -9 9 -13 -10 -16 47 1 64
18 9 10 12 12 7 5 -12 -18 9 -17 28 2 8 8 22 15 30 15 9 0 16 8 17 18 0 12 2
13 6 3 4 -10 9 -8 20 10 9 15 12 17 8 5 -5 -16 -3 -17 10 -6 8 7 15 9 15 4 0
-4 5 -3 12 4 8 8 8 15 0 25 -9 11 -8 14 3 14 8 0 12 -4 9 -8 -2 -4 0 -10 5
-14 6 -3 8 5 5 20 -2 14 3 38 11 53 16 26 15 20 -1 -23 l-7 -20 20 20 c11 11
18 23 16 28 -2 4 6 11 19 16 20 8 21 10 6 16 -9 4 -21 4 -27 1 -5 -4 -13 -1
-17 6 -4 7 -4 10 1 6 4 -4 16 -3 26 2 12 7 19 6 22 -3 4 -9 7 -9 18 1 11 10
11 16 1 33 -8 12 -11 24 -8 27 3 3 6 0 6 -6 0 -6 9 -10 19 -9 11 0 19 4 18 7
-3 14 27 87 42 99 14 12 12 13 -14 7 -19 -4 -25 -3 -17 2 11 8 11 10 -2 15 -9
4 -16 11 -16 17 0 6 7 4 16 -4 20 -20 28 -20 20 -1 -3 8 -1 15 4 15 6 0 10 -7
10 -16 0 -14 3 -14 15 -4 17 14 21 35 5 25 -5 -3 -10 -2 -10 3 0 5 10 12 22
15 17 5 19 9 9 21 -10 12 -8 17 9 26 16 9 19 15 11 23 -7 7 -5 14 7 24 9 8 11
11 4 8 -20 -11 -62 -13 -56 -4 3 5 14 9 25 9 11 0 18 4 15 8 -3 5 4 16 16 26
17 15 18 20 7 27 -8 5 -9 9 -4 9 6 0 3 5 -5 10 -12 7 -12 10 -1 10 8 0 11 6 7
16 -4 9 -2 13 5 8 6 -4 15 -1 19 6 10 16 1 42 -11 34 -5 -3 -6 2 -3 10 3 9 11
16 18 16 6 0 5 4 -4 9 -8 6 -17 8 -21 5 -4 -2 -5 6 -2 17 4 12 14 24 24 26 16
4 16 6 1 23 -23 27 -23 59 -1 55 16 -3 17 -1 6 16 -6 10 -15 19 -19 19 -5 0
-8 5 -8 11 0 5 5 7 11 3 7 -4 10 -1 7 7 -3 8 -11 13 -17 11 -7 -1 -10 2 -6 8
3 5 0 10 -7 10 -9 0 -9 3 -2 8 14 9 13 62 0 63 -6 0 -2 4 9 9 18 8 18 9 -5 9
-14 1 -20 5 -14 9 13 9 27 45 15 37 -16 -9 -24 35 -10 51 13 16 18 31 22 71 1
11 5 19 9 17 4 -3 12 14 18 36 6 22 14 40 19 40 8 0 34 68 31 83 -1 5 7 16 17
25 10 9 19 24 21 32 3 16 94 199 179 360 49 93 143 318 157 373 9 39 -10 33
-24 -7z m-422 -1367 c3 -12 2 -12 -6 0 -6 8 -15 10 -22 6 -9 -5 -11 -4 -6 4
10 15 28 10 34 -10z m-28 -189 c0 -5 -10 -15 -22 -21 l-23 -12 20 21 c23 24
25 25 25 12z m-14 -108 c-10 -2 -22 0 -28 6 -6 6 0 7 19 4 21 -5 23 -7 9 -10z
m-37 -46 c-2 -2 -15 -9 -29 -15 -24 -11 -24 -11 -6 3 16 13 49 24 35 12z m-56
-161 c-3 -9 -8 -14 -10 -11 -3 3 -2 9 2 15 9 16 15 13 8 -4z m-676 -261 c-3
-3 -12 -4 -19 -1 -8 3 -5 6 6 6 11 1 17 -2 13 -5z m238 -34 c-3 -5 -16 -10
-28 -9 -20 1 -20 2 3 9 14 4 26 8 28 9 2 1 0 -3 -3 -9z"/>
<path d="M1541 7804 c0 -11 3 -14 6 -6 3 7 2 16 -1 19 -3 4 -6 -2 -5 -13z"/>
<path d="M2211 7675 c1 -40 1 -40 10 -10 5 18 5 33 -1 39 -7 7 -10 -4 -9 -29z"/>
<path d="M1487 7528 c-3 -13 -14 -79 -23 -148 -26 -179 -25 -761 0 -900 47
-257 78 -396 115 -513 23 -70 41 -132 41 -137 0 -5 15 -41 33 -82 19 -40 53
-116 77 -168 66 -143 209 -364 325 -499 57 -67 113 -133 124 -149 60 -85 781
-677 1028 -845 195 -132 484 -276 718 -356 377 -130 774 -185 1230 -171 138 5
302 15 365 24 256 34 331 46 460 76 74 17 165 37 201 45 62 13 226 64 444 137
50 17 179 68 287 114 108 46 199 84 202 84 2 0 107 55 233 121 459 244 848
509 1207 823 211 184 400 372 390 388 -4 6 -3 8 3 5 6 -4 17 1 24 10 12 14 12
16 -1 8 -8 -4 0 8 18 27 22 24 28 35 17 35 -8 0 -15 -4 -15 -9 0 -4 -5 -8 -11
-8 -7 0 -22 -11 -34 -24 -13 -14 -25 -22 -28 -20 -6 6 -28 -13 -135 -116 -169
-164 -395 -367 -468 -422 -27 -21 -115 -89 -196 -151 -80 -63 -208 -154 -285
-202 -76 -49 -174 -112 -218 -140 -44 -28 -138 -82 -210 -120 -71 -37 -171
-90 -222 -117 -50 -27 -118 -59 -150 -72 -32 -13 -132 -54 -222 -91 -91 -37
-192 -75 -225 -85 -52 -16 -84 -23 -196 -45 -8 -2 -15 -4 -15 -5 0 -1 -33 -2
-73 -3 -39 -1 -72 1 -72 5 0 3 -10 4 -22 0 -16 -4 -19 -2 -13 8 6 10 4 12 -8
7 -11 -4 -14 -2 -11 8 3 8 -4 20 -15 27 -12 7 -21 21 -21 30 0 11 -5 15 -15
12 -11 -4 -13 -2 -9 9 3 10 -2 18 -15 22 -12 3 -21 12 -21 20 0 7 -7 16 -16
19 -9 3 -14 12 -11 19 3 8 1 20 -5 28 -8 11 -9 11 -5 -2 3 -9 -1 -16 -8 -16
-7 0 -11 6 -8 12 2 7 -7 21 -20 31 -13 11 -22 25 -19 32 2 6 -3 12 -12 12 -10
0 -13 6 -10 15 4 10 0 15 -11 15 -11 0 -15 5 -11 16 3 8 2 12 -4 9 -6 -3 -10
1 -10 9 0 9 -6 16 -14 16 -8 0 -17 7 -20 16 -4 9 -9 14 -13 10 -3 -3 -11 4
-17 16 -6 11 -20 26 -31 32 -11 6 -22 13 -25 16 -3 3 -12 6 -20 8 -8 2 -26 10
-38 18 -23 15 -23 16 -5 36 25 29 106 87 183 133 36 21 101 62 146 91 44 29
98 62 120 75 21 12 63 36 92 53 30 17 66 37 80 45 15 8 32 19 38 25 7 6 24 20
40 31 15 11 33 26 40 33 7 6 15 12 19 12 3 0 23 12 43 26 20 15 29 24 19 20
-11 -3 -16 -2 -12 4 3 6 15 10 26 10 11 0 17 5 14 10 -3 6 3 10 14 10 17 0 56
38 47 47 -6 6 -36 -9 -36 -19 0 -5 5 -6 12 -2 7 5 8 3 3 -5 -5 -9 -11 -9 -17
-3 -12 12 -80 -16 -73 -29 3 -3 -1 -6 -8 -5 -6 0 -12 -3 -13 -9 0 -5 -13 -13
-30 -16 -16 -3 -28 -10 -27 -15 1 -6 -3 -11 -10 -11 -7 0 -38 -12 -70 -26 -31
-15 -60 -27 -65 -28 -4 0 -16 -6 -27 -12 -11 -6 -24 -11 -28 -12 -4 0 -12 -7
-17 -15 -5 -8 -10 -11 -10 -6 0 5 -6 3 -13 -3 -8 -6 -17 -8 -20 -4 -4 3 -9 -2
-13 -11 -3 -9 -12 -16 -20 -16 -8 0 -22 -4 -32 -9 -92 -48 -313 -138 -382
-156 -8 -2 -16 -4 -17 -5 -3 -3 -3 -3 -48 -15 -16 -4 -34 -11 -40 -15 -37 -27
-575 -170 -690 -184 -27 -4 -88 -11 -135 -16 -47 -6 -119 -15 -160 -20 -104
-13 -526 -20 -635 -10 -49 5 -130 11 -180 15 -79 5 -169 17 -230 29 -11 2 -65
11 -120 20 -55 9 -188 42 -295 72 -353 101 -652 269 -933 525 -117 106 -302
316 -362 409 -158 247 -267 476 -325 679 -18 63 -38 132 -45 152 -25 69 -74
393 -85 559 -14 199 -5 472 21 660 17 124 19 173 6 118z"/>
<path d="M3415 7213 c-83 -30 -226 -62 -309 -69 l-86 -7 16 -26 c24 -37 72
-78 121 -102 24 -11 45 -25 49 -30 3 -5 10 -7 15 -4 5 4 9 1 9 -6 0 -7 3 -10
6 -6 4 3 19 0 34 -8 22 -11 30 -12 37 -2 19 24 155 268 152 271 -2 2 -22 -3
-44 -11z"/>
<path d="M6237 6394 c-115 -234 -345 -467 -586 -592 -179 -94 -334 -134 -516
-134 -151 0 -227 19 -406 103 -158 74 -157 74 -324 -4 -130 -60 -212 -87 -320
-107 l-70 -13 60 -28 c58 -26 65 -27 207 -24 153 2 230 -5 236 -24 2 -6 11
-11 20 -11 8 0 12 -3 9 -7 -17 -16 62 -34 145 -34 83 1 188 27 203 51 3 5 20
4 38 -1 42 -12 94 -12 102 1 8 13 112 13 120 -1 4 -6 13 -8 20 -5 8 3 15 2 17
-2 5 -11 98 -42 98 -32 0 4 8 6 18 3 10 -2 29 0 42 5 14 5 29 10 33 10 4 0 18
7 31 15 12 9 45 18 72 22 27 4 65 11 84 17 19 6 41 11 50 12 18 2 113 37 120
45 3 4 22 15 43 25 40 20 217 183 217 199 0 5 11 23 26 39 29 35 118 186 120
206 2 7 9 23 17 35 8 12 15 27 17 32 1 6 8 21 15 35 27 50 83 220 73 220 -2 0
-16 -25 -31 -56z"/>
<path d="M3250 6384 c0 -127 62 -266 165 -369 127 -128 246 -171 450 -162 95
4 146 12 245 40 69 19 165 44 214 56 49 11 98 27 110 36 70 52 90 65 97 65 4
0 45 -25 90 -56 143 -98 228 -125 391 -125 103 1 217 20 266 45 36 19 43 36
58 146 3 25 8 48 11 52 2 4 6 43 8 85 3 73 2 79 -21 96 -24 18 -25 17 -65 -15
-22 -18 -62 -52 -87 -76 -127 -119 -187 -126 -317 -42 -72 47 -91 47 -119 -2
-27 -48 -57 -78 -76 -78 -9 0 -39 12 -66 26 -53 28 -104 28 -149 -2 -28 -18
-42 -12 -56 24 l-10 26 -25 -32 c-30 -38 -49 -40 -94 -7 -18 13 -37 22 -41 20
-4 -3 -10 -1 -14 4 -3 5 -15 7 -28 4 -12 -3 -58 -6 -102 -7 -53 -1 -90 -7
-110 -17 -93 -51 -113 -59 -146 -59 -46 0 -109 26 -185 78 -87 58 -89 58 -113
6 -12 -25 -28 -47 -36 -50 -21 -9 -90 34 -125 77 -41 52 -75 121 -93 192 -20
76 -27 82 -27 21z"/>
<path d="M9090 5970 c-6 -11 -8 -20 -6 -20 3 0 10 9 16 20 6 11 8 20 6 20 -3
0 -10 -9 -16 -20z"/>
<path d="M8260 5660 c-8 -5 -12 -12 -9 -15 4 -3 12 1 19 10 14 17 11 19 -10 5z"/>
<path d="M6686 4988 c3 -4 9 -8 15 -8 5 0 9 4 9 8 0 5 -7 9 -15 9 -8 0 -12 -4
-9 -9z"/>
</g>
</svg>
